<svg preserveAspectRatio="none" width="100%" height="100%" overflow="visible" style="display: block;" viewBox="0 0 148.693 75.8762" fill="none" xmlns="http://www.w3.org/2000/svg">
<path id="Vector" d="M15.0531 26.1183L17.3923 23.2362C28.3939 9.9307 44.7797 1.85005 61.8884 0.237625C75.6689 -0.934684 89.4696 2.25092 101.342 9.3449C103.03 10.3739 104.784 11.3911 106.303 12.6482C106.76 13.8387 106.195 21.0769 106.062 22.6773C108.767 19.5319 110.648 17.6641 115.089 17.3026C115.012 15.3096 114.835 11.6307 115.941 10.0488C115.997 11.2974 115.845 12.1698 115.674 13.4028C116.217 12.4882 116.644 11.5366 117.574 11.0213C119.907 10.1501 121.336 10.2982 123.711 11.0116L123.81 11.127C124.555 11.9961 124.337 12.3679 124.967 12.8148C125.369 12.716 125.393 12.7145 125.732 12.4869C127.085 10.7128 131.098 10.389 132.22 12.4755C132.778 13.1635 133.385 14.3892 133.841 14.6316C134.284 14.3502 134.367 13.8917 134.544 13.3328C134.97 14.875 135.593 17.037 136.247 18.4362C137.168 20.4085 142.381 28.9534 144.223 29.2731C144.637 29.8521 144.579 29.5953 144.494 30.2298C144.405 31.1169 145.004 32.1577 145.404 32.9811C148.014 37.2226 151.171 46.3585 145.613 49.5781C142.271 51.5142 135.888 51.57 132.07 51.4579C132.475 55.0072 133.016 59.0258 133.23 62.5602C133.494 66.8681 133.347 71.5278 133.376 75.8762H66.8172H66.2267H0C0.625934 75.7382 0.989578 75.691 1.54231 75.3586C1.70088 74.0943 1.6106 70.3166 1.61478 68.8882C1.60588 65.3247 1.71251 61.762 1.93429 58.2057C5.70751 58.1892 9.48073 58.193 13.2538 58.2171C17.654 58.2346 21.55 58.8729 25.0453 55.616C27.3269 53.4656 28.6573 50.4945 28.7419 47.3605C29.0689 35.4296 14.5127 30.9443 15.0531 26.1183Z" fill="var(--fill-0, #101010)"/>
</svg>
